<svg width="575" height="652" viewBox="0 0 575 652" fill="none" xmlns="http://www.w3.org/2000/svg">
<path d="M575 270.502C575 419.897 453.892 541.005 304.498 541.005C155.108 541.005 34 419.897 34 270.502C34 121.108 155.108 9.88219e-06 304.498 9.88219e-06C453.892 9.88219e-06 575 121.108 575 270.502Z" fill="#663399"/>
<path d="M305.002 476.502C305.002 560.727 236.724 629.005 152.5 629.005C68.2778 629.005 0 560.727 0 476.502C0 392.278 68.2778 324 152.5 324C236.724 324 305.002 392.278 305.002 476.502Z" fill="#FF5D3A"/>
<path d="M329 628.5C329 641.479 318.478 652 305.5 652C292.521 652 282 641.479 282 628.5C282 615.521 292.521 605 305.5 605C318.478 605 329 615.521 329 628.5Z" fill="#FF5D3A"/>
</svg>
